<svg width="162" height="34" viewBox="0 0 162 34" fill="none" xmlns="http://www.w3.org/2000/svg">
<path fill-rule="evenodd" clip-rule="evenodd" d="M40.7996 23.7603H36.3994V10.4525H40.7996V15.0362L46.046 10.4525H51.0302L43.9403 16.7276L51.3477 23.7603H45.9532L40.7996 18.5592V23.7603Z" fill="#0061A0"/>
<path fill-rule="evenodd" clip-rule="evenodd" d="M53.1396 10.4525H57.5469V20.881H64.3344V23.7603H53.1396V10.4525Z" fill="#0061A0"/>
<path fill-rule="evenodd" clip-rule="evenodd" d="M65.8809 10.4525H77.3272V13.1708H70.2406V15.6108H75.5452V18.1975H70.2406V20.881H77.605V23.7603H65.8809V10.4525Z" fill="#0061A0"/>
<path fill-rule="evenodd" clip-rule="evenodd" d="M79.8887 10.4525H91.3374V13.1708H84.249V15.6108H89.553V18.1975H84.249V20.881H91.6141V23.7603H79.8887V10.4525Z" fill="#0061A0"/>
<path fill-rule="evenodd" clip-rule="evenodd" d="M108.438 23.7603V15.8926L105.291 23.7603H101.174L98.0266 15.8926V23.7603H94.0254V10.4525H99.9714L103.328 18.9194L106.682 10.4525H112.536V23.7603H108.438Z" fill="#0061A0"/>
<path fill-rule="evenodd" clip-rule="evenodd" d="M120.174 18.5228H123.812L121.981 13.5767L120.174 18.5228ZM124.553 20.8778H119.433L118.391 23.7603H113.99L119.386 10.4525H124.691L130.111 23.7603H125.594L124.553 20.8778Z" fill="#0061A0"/>
<path fill-rule="evenodd" clip-rule="evenodd" d="M140.963 23.7603L135.636 16.6391V23.7603H131.512V10.4525H135.589L140.569 17.165V10.4525H144.692V23.7603H140.963Z" fill="#0061A0"/>
<path fill-rule="evenodd" clip-rule="evenodd" d="M157.001 10.4526V17.1651L152.022 10.4526H147.946V23.7603H152.067V16.6391L157.396 23.7603H161.124V10.4526H157.001Z" fill="#0061A0"/>
<path fill-rule="evenodd" clip-rule="evenodd" d="M19.9079 0.546677C30.5196 9.14123 32.429 15.0738 26.2775 24.4841H24.9764C30.8718 15.5103 29.079 9.87384 18.9783 1.69464C18.6622 1.43762 18.613 0.973144 18.8693 0.655596C19.1262 0.339218 19.5919 0.290095 19.9079 0.546677Z" fill="#0061A0"/>
<path fill-rule="evenodd" clip-rule="evenodd" d="M17.4206 1.94361C27.4094 10.0314 29.2006 15.6238 23.4027 24.4842H22.1039C27.6433 16.0619 25.9656 10.7637 16.491 3.09172C16.1749 2.83426 16.1257 2.36978 16.382 2.05253C16.6389 1.73571 17.1038 1.68629 17.4206 1.94361Z" fill="#0061A0"/>
<path fill-rule="evenodd" clip-rule="evenodd" d="M14.9312 3.33975C24.2995 10.9262 25.9724 16.1658 20.5174 24.4842H19.2156C24.4153 16.6026 22.8572 11.66 14.0015 4.48816C13.6838 4.23114 13.6356 3.76622 13.8926 3.44911C14.1488 3.13185 14.6144 3.08317 14.9312 3.33975Z" fill="#0061A0"/>
<path fill-rule="evenodd" clip-rule="evenodd" d="M12.4388 4.73786C21.1902 11.8226 22.7414 16.7061 17.6268 24.4842H16.3319C21.1826 17.1481 19.7434 12.5537 11.5091 5.88582C11.1923 5.6288 11.1431 5.16359 11.4001 4.84678C11.657 4.52996 12.1219 4.4804 12.4388 4.73786Z" fill="#0061A0"/>
<path fill-rule="evenodd" clip-rule="evenodd" d="M9.85551 33.5999C-0.756178 25.0051 -2.66556 19.0728 3.48598 9.66174H4.78629C-1.10911 18.6363 0.685214 24.2725 10.7845 32.4519C11.1013 32.7081 11.1504 33.1734 10.8934 33.4903C10.6372 33.8075 10.1716 33.8566 9.85551 33.5999Z" fill="#0061A0"/>
<path fill-rule="evenodd" clip-rule="evenodd" d="M12.3431 32.203C2.35508 24.1152 0.563102 18.5228 6.36098 9.66162H7.65895C2.12043 18.0844 3.79808 23.3823 13.2729 31.0547C13.5897 31.3116 13.6387 31.7765 13.3817 32.0941C13.1248 32.4109 12.6599 32.4593 12.3431 32.203Z" fill="#0061A0"/>
<path fill-rule="evenodd" clip-rule="evenodd" d="M14.8323 30.806C5.46406 23.2198 3.79182 17.98 9.24613 9.66162H10.5472C5.34827 17.5434 6.9056 22.4869 15.7621 29.6579C16.079 29.9145 16.1279 30.3799 15.8709 30.6967C15.6149 31.0144 15.1499 31.0634 14.8323 30.806Z" fill="#0061A0"/>
<path fill-rule="evenodd" clip-rule="evenodd" d="M17.3251 29.4092C8.57364 22.3232 7.02333 17.4396 12.137 9.66174H13.4319C8.58139 16.9981 10.0197 21.592 18.2549 28.2605C18.5725 28.5174 18.6207 28.9826 18.3646 29.2999C18.1075 29.6167 17.6426 29.6654 17.3251 29.4092Z" fill="#0061A0"/>
</svg>
